<svg xmlns="http://www.w3.org/2000/svg" viewBox="0 0 10 11">
  <path fill="#00454d" d="M7.94 6.88H2.1c-1.03 0-1.03-.98-1.03-1.3 0-1.04.2-2.14.5-3.1.27-.76.7-1.7 3.45-1.7s3.18.95 3.43 1.7c.32.96.52 2.05.52 3.1 0 .3 0 1.3-1.03 1.3M6.9 8.08c0-.3.24-.53.52-.53s.52.23.52.5c0 .3-.26.53-.55.53-.3 0-.54-.24-.54-.53m-4.3.52c-.28 0-.5-.24-.5-.53 0-.27.22-.5.5-.5.3 0 .52.22.52.5 0 .3-.24.52-.53.52m7.4-2.05c0-2.06-.8-4.92-1.55-5.7C7.62.08 5.85 0 5 0c-.88 0-2.64.04-3.46.86C.8 1.6 0 4.46 0 6.56c0 1 0 2.7 1.02 2.7h.73L.9 11h1.7l.35-1.72h4.13l.34 1.7h1.72l-.86-1.7h.68C10 9.28 10 7.55 10 6.54h-.03z"/>
</svg>
