<svg xmlns="http://www.w3.org/2000/svg" viewBox="0 0 24 24">
  <path fill="#00454d" d="M3.5 3.5c4.7-4.67 12.3-4.67 17 0 4.67 4.7 4.67 12.3 0 17-4.7 4.67-12.3 4.67-17 0-4.67-4.7-4.67-12.3 0-17z"/>
  <path fill="#fff" d="M10.4 18.06l-.33 2.02h3.86l-.34-2.02z"/>
  <path fill="#fff" d="M16.04 14.53H7.96c-.28 0-.46-.23-.4-.5l1.57-8.35c.05-.27.32-.5.6-.5h4.54c.28 0 .55.23.6.5l1.58 8.35c.05.27-.13.5-.4.5m-.26 2c-.3 0-.6-.2-.6-.5 0-.27.23-.5.5-.5.3 0 .5.23.5.5 0 .3-.2.5-.5.5m-1.5 0c-.3 0-.5-.2-.5-.5 0-.27.2-.5.5-.5.27 0 .5.23.5.5 0 .3-.23.5-.5.5m-4.55 0c-.28 0-.5-.2-.5-.5 0-.27.22-.5.5-.5s.5.23.5.5c0 .3-.2.5-.5.5m-1.5 0c-.28 0-.5-.2-.5-.5 0-.27.22-.5.5-.5.3 0 .5.23.5.5 0 .3-.23.5-.5.5m9.6-10v-.5s0-1.15-1.34-1.53l-1.57-.45c-.24-.07-.6-.13-1.1-.13h-3.6c-.5 0-.9.06-1.1.13l-1.6.45c-1.3.38-1.3 1.53-1.3 1.53v11.15c0 .2.16.37.36.37h1.4l.2 1.27c.03.14.16.25.3.25h1c.15 0 .3-.1.3-.25l.2-1.27H14l.2 1.27c.04.14.18.25.3.25h1.03c.13 0 .27-.1.3-.25l.2-1.27h1.4c.2 0 .37-.17.37-.37V6.53z"/>
</svg>
