<svg xmlns="http://www.w3.org/2000/svg" viewBox="0 0 24 24">
  <path fill="#00454d" d="M3.5 3.5c4.7-4.67 12.3-4.67 16.98 0 4.7 4.7 4.7 12.3 0 16.98-4.68 4.7-12.28 4.7-16.97 0C-1.13 15.8-1.13 8.2 3.5 3.5z"/>
  <path fill="#fff" d="M16.3 13.06H7.7c-1.5 0-1.5-1.44-1.5-1.9 0-1.53.3-3.15.75-4.54.38-1.13 1-2.52 5.05-2.52 4.04 0 4.67 1.4 5.05 2.52.46 1.4.75 3 .75 4.53 0 .47 0 1.9-1.5 1.9m-1.53 1.77c0-.4.35-.75.76-.75.42 0 .76.34.76.75 0 .42-.38.76-.8.76-.4 0-.75-.34-.75-.76m-6.3.76c-.43 0-.77-.34-.77-.76 0-.4.34-.75.75-.75.42 0 .76.34.76.75 0 .42-.34.76-.76.76m10.86-3c0-3.05-1.16-7.25-2.26-8.35-1.2-1.2-3.8-1.27-5.05-1.27-1.28 0-3.87.06-5.07 1.27-1.1 1.1-2.27 5.3-2.27 8.35 0 1.5 0 4 1.5 4H7.2l-1.26 2.54h2.52l.5-2.53h6.07l.5 2.5h2.53l-1.26-2.5h1c1.52 0 1.52-2.54 1.52-4.03z"/>
</svg>
